<?xml version="1.0" encoding="utf-8"?>
<!-- Generator: Adobe Illustrator 24.1.3, SVG Export Plug-In . SVG Version: 6.00 Build 0)  -->
<svg version="1.1" id="Layer_1" xmlns="http://www.w3.org/2000/svg" xmlns:xlink="http://www.w3.org/1999/xlink" x="0px" y="0px"
	 viewBox="0 0 201.9 108.5" style="enable-background:new 0 0 201.9 108.5;" xml:space="preserve">
<style type="text/css">
	.st0{fill:none;stroke:#D1D3D4;stroke-width:0.934;stroke-linecap:round;stroke-linejoin:round;}
	.st1{fill:#FFFFFF;}
</style>
<path class="st0" d="M214.4,112.8L214.4,112.8 M214.4,4.4L214.4,4.4"/>
<path class="st0" d="M347.4,101.9L347.4,101.9 M347.4,2.4L347.4,2.4"/>
<path class="st0" d="M369.7,89.9L369.7,89.9 M369.7-9.6L369.7-9.6"/>
<path class="st0" d="M392.6,38.1L392.6,38.1 M38.4,38.1L38.4,38.1"/>
<path class="st0" d="M392.6,83.3L392.6,83.3 M41.4,83.3L41.4,83.3"/>
<g>
	<polygon class="st1" points="5,89 14.6,89 14.6,91.4 8.1,91.4 8.1,95.8 14.1,95.8 14.1,98.4 8.1,98.4 8.1,105.4 5,105.4 	"/>
	<rect x="17.5" y="89" class="st1" width="3" height="16.4"/>
	<path class="st1" d="M23.8,105.4V89h3.3l4.3,7c1.1,1.8,2.1,3.7,2.9,5.6l0,0c-0.2-2.2-0.3-4.3-0.3-6.9V89h2.7v16.4h-3l-4.3-7.2
		c-1.1-1.8-2.1-3.8-2.9-5.7l0,0c0.2,2.1,0.2,4.3,0.2,7v5.9C26.7,105.4,23.8,105.4,23.8,105.4z"/>
	<path class="st1" d="M54.3,98.7c-0.2-2.1-0.2-4.6-0.2-6.9l0,0c-0.5,2.1-1.3,4.1-1.9,6.2l-2.4,7.2h-2.4l-2.2-7
		c-0.6-2.1-1.3-4.3-1.6-6.4l0,0c0,2.1-0.2,4.8-0.3,7l-0.3,6.5h-2.9L41.2,89h4l2.1,6.5c0.6,1.9,1.1,3.8,1.4,5.7l0,0
		c0.5-1.8,1-3.8,1.6-5.7l2.2-6.5h3.8l1,16.4h-2.9L54.3,98.7z"/>
	<path class="st1" d="M68.5,98.4l-1.3-4c-0.3-1-0.6-2.1-0.8-3l0,0c-0.3,1-0.5,2.1-0.8,3l-1.3,4H68.5z M63.7,100.6l-1.4,4.6h-3
		l5.3-16.4h3.8l5.3,16.4h-3.2l-1.4-4.6H63.7z"/>
	<path class="st1" d="M79,96.3h1.8c2.1,0,3.3-1.1,3.3-2.7c0-1.8-1.3-2.7-3.2-2.7c-1,0-1.6,0-1.9,0.2L79,96.3L79,96.3z M75.9,89.1
		c1.1-0.2,2.9-0.3,4.5-0.3c2.4,0,4,0.3,5.1,1.3c1,0.8,1.4,1.9,1.4,3.3c0,2.1-1.4,3.5-3,4.1l0,0c1.1,0.5,1.9,1.6,2.2,3.2
		c0.5,2.1,1,4,1.3,4.6h-3c-0.3-0.5-0.6-1.8-1.1-3.8c-0.5-2.1-1.3-2.9-2.9-2.9H79v6.7h-3L75.9,89.1L75.9,89.1z"/>
	<path class="st1" d="M89.8,89h3v7.5l0,0c0.3-0.6,0.8-1.3,1.1-1.8l4.3-5.7h3.7l-5.6,7l6.1,9.4h-3.5l-4.6-7.5l-1.4,1.8v5.7h-3
		L89.8,89L89.8,89z"/>
	<polygon class="st1" points="112.3,92 108,92 108,89 120.6,89 120.6,92 116.1,92 116.1,105.4 112.3,105.4 	"/>
	<path class="st1" d="M126.1,96.1h1.4c1.9,0,2.9-1,2.9-2.4c0-1.4-1-2.2-2.7-2.2c-1,0-1.4,0-1.8,0.2v4.5H126.1z M122.5,89.1
		c1.1-0.2,2.9-0.3,4.9-0.3c2.4,0,4.1,0.3,5.3,1.3c1,0.8,1.6,1.9,1.6,3.5c0,2.1-1.4,3.5-2.9,4l0,0c1.1,0.5,1.8,1.6,2.2,3
		c0.5,1.9,1,4,1.3,4.6h-3.8c-0.3-0.5-0.6-1.8-1.1-3.8c-0.5-2.1-1.1-2.5-2.7-2.7h-1.1v6.5h-3.7L122.5,89.1L122.5,89.1z"/>
	<path class="st1" d="M140.7,89v9.4c0,2.9,1.1,4.3,3,4.3c1.9,0,3-1.4,3-4.3V89h3.7v9.2c0,5.1-2.5,7.5-6.9,7.5
		c-4.1,0-6.5-2.4-6.5-7.5v-9.1h3.7L140.7,89L140.7,89z"/>
	<path class="st1" d="M153.7,101.6c1,0.5,2.5,1,4.1,1c1.8,0,2.5-0.6,2.5-1.8c0-1-0.8-1.6-2.7-2.2c-2.7-1-4.5-2.5-4.5-4.9
		c0-2.9,2.4-4.9,6.2-4.9c1.9,0,3.2,0.3,4.1,0.8l-0.8,3c-0.6-0.3-1.8-0.8-3.3-0.8s-2.4,0.8-2.4,1.6c0,1.1,1,1.4,3,2.4
		c2.9,1.1,4.3,2.5,4.3,4.9c0,2.7-2.1,5.1-6.5,5.1c-1.9,0-3.7-0.5-4.6-1L153.7,101.6z"/>
	<polygon class="st1" points="170,92 165.5,92 165.5,89 178.1,89 178.1,92 173.6,92 173.6,105.4 170,105.4 	"/>
	<polygon class="st1" points="122.3,14.9 122.3,28.4 134.9,28.4 134.9,83.9 150.2,83.9 150.2,28.4 163,28.4 163,14.9 	"/>
	<path class="st1" d="M110.1,76.1V33l-7,42.2c-6.1-0.6-11.8-0.6-17.4-0.2l-7-41.9v42.7c-5.3,0.8-10.2,1.8-14.8,3L65.7,15h22.3
		L94.3,60l6.2-44.9h22.3l1.9,65C119.8,78.1,114.8,77,110.1,76.1"/>
	<polygon class="st1" points="20.3,14.9 20.3,28.4 32.9,28.4 32.9,83.9 48.2,83.9 48.2,57.2 61.6,57.2 61.6,44.5 48.2,44.5 
		48.2,28.4 65.9,28.4 65.9,14.9 	"/>
</g>
</svg>
