<?xml version="1.0" encoding="utf-8"?>
<!-- Generator: Adobe Illustrator 24.1.3, SVG Export Plug-In . SVG Version: 6.00 Build 0)  -->
<svg version="1.1" id="Layer_1" xmlns="http://www.w3.org/2000/svg" xmlns:xlink="http://www.w3.org/1999/xlink" x="0px" y="0px"
	 viewBox="0 0 239.7 110.1" style="enable-background:new 0 0 239.7 110.1;" xml:space="preserve">
<style type="text/css">
	.st0{fill:none;stroke:#D1D3D4;stroke-width:0.934;stroke-linecap:round;stroke-linejoin:round;}
	.st1{fill:#FFFFFF;}
</style>
<path class="st0" d="M229.3,113.5L229.3,113.5 M229.3-0.6L229.3-0.6"/>
<path class="st0" d="M345.4,89.9L345.4,89.9 M345.4-9.6L345.4-9.6"/>
<path class="st0" d="M369.7,89.9L369.7,89.9 M369.7-9.6L369.7-9.6"/>
<path class="st0" d="M416.9,34.8L416.9,34.8 M44.2,34.8L44.2,34.8"/>
<path class="st0" d="M416.9,82.4L416.9,82.4 M47.3,82.4L47.3,82.4"/>
<g>
	<polygon class="st1" points="9,88.4 19.1,88.4 19.1,90.9 12.2,90.9 12.2,95.6 18.6,95.6 18.6,98.3 12.2,98.3 12.2,105.7 9,105.7 	
		"/>
	<rect x="22.1" y="88.4" class="st1" width="3.2" height="17.3"/>
	<path class="st1" d="M28.8,105.7V88.4h3.5l4.5,7.4c1.2,1.8,2.2,3.9,3,5.9l0,0c-0.2-2.3-0.3-4.5-0.3-7.2v-6h2.9v17.3h-3.2l-4.5-7.5
		c-1.2-1.8-2.2-4-3-6l0,0c0.2,2.2,0.2,4.5,0.2,7.4v6.2C31.8,105.7,28.8,105.7,28.8,105.7z"/>
	<path class="st1" d="M60.9,98.6c-0.2-2.2-0.2-4.9-0.2-7.2l0,0c-0.5,2.2-1.3,4.4-2,6.5l-2.5,7.5h-2.5l-2.3-7.4
		c-0.7-2.2-1.3-4.5-1.7-6.7l0,0c0,2.2-0.2,5-0.3,7.4l-0.3,6.9h-3l1.2-17.3h4.2l2.2,6.9c0.7,2,1.2,4,1.5,6l0,0c0.5-1.8,1-4,1.7-6
		l2.3-6.9h4l1,17.3h-3L60.9,98.6z"/>
	<path class="st1" d="M75.8,98.3l-1.3-4.2c-0.3-1-0.7-2.2-0.8-3.2l0,0c-0.3,1-0.5,2.2-0.8,3.2l-1.3,4.2H75.8z M70.7,100.6l-1.5,4.9
		h-3.2l5.5-17.3h4l5.5,17.3h-3.4l-1.5-4.9H70.7z"/>
	<path class="st1" d="M86.9,96.1h1.8c2.2,0,3.5-1.2,3.5-2.9c0-1.8-1.3-2.9-3.4-2.9c-1,0-1.7,0-2,0.2L86.9,96.1L86.9,96.1z
		 M83.7,88.6c1.2-0.2,3-0.3,4.7-0.3c2.5,0,4.2,0.3,5.4,1.3c1,0.8,1.5,2,1.5,3.5c0,2.2-1.5,3.7-3.2,4.4l0,0c1.2,0.5,2,1.7,2.3,3.4
		c0.5,2.2,1,4.2,1.3,4.9h-3.2c-0.3-0.5-0.7-1.8-1.2-4c-0.5-2.2-1.3-3-3-3h-1.5v7h-3.2L83.7,88.6L83.7,88.6z"/>
	<path class="st1" d="M98.3,88.4h3.2v7.9l0,0c0.3-0.7,0.8-1.3,1.2-1.8l4.5-6h3.9l-5.9,7.4l6.4,9.9h-3.7l-4.9-7.9l-1.5,1.8v6h-3.2
		L98.3,88.4L98.3,88.4z"/>
	<polygon class="st1" points="121.9,91.6 117.4,91.6 117.4,88.4 130.6,88.4 130.6,91.6 125.9,91.6 125.9,105.7 121.9,105.7 	"/>
	<path class="st1" d="M136.5,95.9h1.5c2,0,3-1,3-2.5s-1-2.3-2.9-2.3c-1,0-1.5,0-1.8,0.2v4.7H136.5z M132.6,88.6
		c1.2-0.2,3-0.3,5.2-0.3c2.5,0,4.4,0.3,5.5,1.3c1,0.8,1.7,2,1.7,3.7c0,2.2-1.5,3.7-3,4.2l0,0c1.2,0.5,1.8,1.7,2.3,3.2
		c0.5,2,1,4.2,1.3,4.9h-4c-0.3-0.5-0.7-1.8-1.2-4c-0.5-2.2-1.2-2.7-2.9-2.9h-1.2v6.9h-3.9L132.6,88.6L132.6,88.6z"/>
	<path class="st1" d="M151.8,88.4v9.9c0,3,1.2,4.5,3.2,4.5c2,0,3.2-1.5,3.2-4.5v-9.9h3.9v9.7c0,5.4-2.7,7.9-7.2,7.9
		c-4.4,0-6.9-2.5-6.9-7.9v-9.6h3.9L151.8,88.4L151.8,88.4z"/>
	<path class="st1" d="M165.5,101.6c1,0.5,2.7,1,4.4,1c1.8,0,2.7-0.7,2.7-1.8c0-1-0.8-1.7-2.9-2.3c-2.9-1-4.7-2.7-4.7-5.2
		c0-3,2.5-5.2,6.5-5.2c2,0,3.4,0.3,4.4,0.8l-0.8,3.2c-0.7-0.3-1.8-0.8-3.5-0.8c-1.7,0-2.5,0.8-2.5,1.7c0,1.2,1,1.5,3.2,2.5
		c3,1.2,4.5,2.7,4.5,5.2c0,2.9-2.2,5.4-6.9,5.4c-2,0-3.9-0.5-4.9-1L165.5,101.6z"/>
	<polygon class="st1" points="182.6,91.6 177.9,91.6 177.9,88.4 191.2,88.4 191.2,91.6 186.5,91.6 186.5,105.7 182.6,105.7 	"/>
	<polygon class="st1" points="132.5,10.4 132.5,24.7 145.7,24.7 145.7,83 161.8,83 161.8,24.7 175.2,24.7 175.2,10.4 	"/>
	<path class="st1" d="M119.6,74.8V29.5L112.2,74c-6.4-0.7-12.4-0.7-18.3-0.2l-7.4-44.1v44.9c-5.5,0.8-10.7,1.8-15.6,3.2l2-67.3h23.5
		l6.5,47.3l6.5-47.3H133l2,68.4C129.8,77,124.6,75.8,119.6,74.8"/>
	<polygon class="st1" points="25.1,10.4 25.1,24.7 38.4,24.7 38.4,83 54.5,83 54.5,55 68.6,55 68.6,41.6 54.5,41.6 54.5,24.7 
		73.1,24.7 73.1,10.4 	"/>
</g>
</svg>
