<svg id="Layer_1" data-name="Layer 1" xmlns="http://www.w3.org/2000/svg" viewBox="0 0 330.57 100.43"><defs><style>.cls-1{fill:none;stroke:#d1d3d4;stroke-linecap:round;stroke-linejoin:round;stroke-width:0.93px;}.cls-2{fill:#fff;}</style></defs><path class="cls-1" d="M180.3,89.9h0m0-99.5h0" transform="translate(-13.8 10.07)"/><path class="cls-1" d="M318.5,89.9h0m0-99.5h0" transform="translate(-13.8 10.07)"/><path class="cls-1" d="M342.8,89.9h0m0-99.5h0" transform="translate(-13.8 10.07)"/><path class="cls-1" d="M343.9,21.3h0m-325.1,0h0" transform="translate(-13.8 10.07)"/><path class="cls-1" d="M343.9,62.8h0m-322.4,0h0" transform="translate(-13.8 10.07)"/><polygon class="cls-2" points="0 70.57 6 70.57 6 72.07 1.9 72.07 1.9 74.87 5.7 74.87 5.7 76.47 1.9 76.47 1.9 80.87 0 80.87 0 70.57"/><rect class="cls-2" x="7.8" y="70.57" width="1.9" height="10.3"/><path class="cls-2" d="M25.6,70.8V60.5h2.1l2.7,4.4a23.13,23.13,0,0,1,1.8,3.5h0c-.1-1.4-.2-2.7-.2-4.3V60.5h1.7V70.8H31.8l-2.7-4.5a24.19,24.19,0,0,1-1.8-3.6h0c.1,1.3.1,2.7.1,4.4v3.7Z" transform="translate(-13.8 10.07)"/><path class="cls-2" d="M44.7,66.6c-.1-1.3-.1-2.9-.1-4.3h0c-.3,1.3-.8,2.6-1.2,3.9l-1.5,4.5H40.4L39,66.3a29.24,29.24,0,0,1-1-4h0c0,1.3-.1,3-.2,4.4l-.2,4.1H35.8l.7-10.3H39l1.3,4.1a23.69,23.69,0,0,1,.9,3.6h0c.3-1.1.6-2.4,1-3.6l1.4-4.1H46l.6,10.3H44.8Z" transform="translate(-13.8 10.07)"/><path class="cls-2" d="M53.6,66.4l-.8-2.5a13.32,13.32,0,0,1-.5-1.9h0c-.2.6-.3,1.3-.5,1.9L51,66.4Zm-3,1.4-.9,2.9H47.8l3.3-10.3h2.4l3.3,10.3h-2l-.9-2.9Z" transform="translate(-13.8 10.07)"/><path class="cls-2" d="M60.2,65.1h1.1c1.3,0,2.1-.7,2.1-1.7s-.8-1.7-2-1.7a3.45,3.45,0,0,0-1.2.1v3.3Zm-1.9-4.5a21.58,21.58,0,0,1,2.8-.2,4.73,4.73,0,0,1,3.2.8,2.58,2.58,0,0,1,.9,2.1,2.83,2.83,0,0,1-1.9,2.6h0a2.58,2.58,0,0,1,1.4,2,20.09,20.09,0,0,0,.8,2.9H63.6a10.37,10.37,0,0,1-.7-2.4c-.3-1.3-.8-1.8-1.8-1.8h-.9v4.2H58.3V60.6Z" transform="translate(-13.8 10.07)"/><path class="cls-2" d="M67,60.5h1.9v4.7h0a10.54,10.54,0,0,1,.7-1.1l2.7-3.6h2.3l-3.5,4.4,3.8,5.9H72.7l-2.9-4.7-.9,1.1v3.6H67V60.5Z" transform="translate(-13.8 10.07)"/><polygon class="cls-2" points="67.3 72.47 64.6 72.47 64.6 70.57 72.5 70.57 72.5 72.47 69.7 72.47 69.7 80.87 67.3 80.87 67.3 72.47"/><path class="cls-2" d="M89.8,65h.9c1.2,0,1.8-.6,1.8-1.5s-.6-1.4-1.7-1.4a2.81,2.81,0,0,0-1.1.1V65Zm-2.3-4.4a22.79,22.79,0,0,1,3.1-.2,5,5,0,0,1,3.3.8,2.72,2.72,0,0,1,1,2.2,2.64,2.64,0,0,1-1.8,2.5h0a2.85,2.85,0,0,1,1.4,1.9,24.93,24.93,0,0,0,.8,2.9H92.9a10.37,10.37,0,0,1-.7-2.4c-.3-1.3-.7-1.6-1.7-1.7h-.7v4.1H87.5V60.6Z" transform="translate(-13.8 10.07)"/><path class="cls-2" d="M98.9,60.5v5.9c0,1.8.7,2.7,1.9,2.7s1.9-.9,1.9-2.7V60.5H105v5.8c0,3.2-1.6,4.7-4.3,4.7s-4.1-1.5-4.1-4.7V60.6h2.3v-.1Z" transform="translate(-13.8 10.07)"/><path class="cls-2" d="M107.1,68.4a6.23,6.23,0,0,0,2.6.6c1.1,0,1.6-.4,1.6-1.1s-.5-1-1.7-1.4c-1.7-.6-2.8-1.6-2.8-3.1,0-1.8,1.5-3.1,3.9-3.1a5.68,5.68,0,0,1,2.6.5l-.5,1.9a4.56,4.56,0,0,0-2.1-.5c-1,0-1.5.5-1.5,1,0,.7.6.9,1.9,1.5,1.8.7,2.7,1.6,2.7,3.1,0,1.7-1.3,3.2-4.1,3.2a7,7,0,0,1-2.9-.6Z" transform="translate(-13.8 10.07)"/><polygon class="cls-2" points="103.5 72.47 100.7 72.47 100.7 70.57 108.6 70.57 108.6 72.47 105.8 72.47 105.8 80.87 103.5 80.87 103.5 72.47"/><polygon class="cls-2" points="73.6 24.07 73.6 32.57 81.5 32.57 81.5 67.37 91.1 67.37 91.1 32.57 99.1 32.57 99.1 24.07 73.6 24.07"/><path class="cls-2" d="M79.7,52.4v-27L75.3,51.9a56.91,56.91,0,0,0-10.9-.1L60,25.5V52.3a80.32,80.32,0,0,0-9.3,1.9l1.2-40.1h14l3.9,28.2,3.9-28.2h14l1.2,40.8a54.89,54.89,0,0,0-9.2-2.5" transform="translate(-13.8 10.07)"/><polygon class="cls-2" points="9.6 24.07 9.6 32.57 17.5 32.57 17.5 67.37 27.1 67.37 27.1 50.67 35.5 50.67 35.5 42.67 27.1 42.67 27.1 32.57 38.2 32.57 38.2 24.07 9.6 24.07"/></svg>