<svg id="Layer_1" data-name="Layer 1" xmlns="http://www.w3.org/2000/svg" viewBox="0 0 388.04 111.33"><defs><style>.cls-1{fill:none;stroke:#d1d3d4;stroke-linecap:round;stroke-linejoin:round;stroke-width:0.93px;}.cls-2{fill:#fff;}</style></defs><path class="cls-1" d="M212.38,100.79h0m0-108.39h0" transform="translate(-3.03 10.07)"/><path class="cls-1" d="M345.4,89.9h0m0-99.5h0" transform="translate(-3.03 10.07)"/><path class="cls-1" d="M369.7,89.9h0m0-99.5h0" transform="translate(-3.03 10.07)"/><path class="cls-1" d="M390.6,26.06h0m-354.15,0h0" transform="translate(-3.03 10.07)"/><path class="cls-1" d="M390.6,71.27h0m-351.21,0h0" transform="translate(-3.03 10.07)"/><polygon class="cls-2" points="0 87.03 9.56 87.03 9.56 89.42 3.03 89.42 3.03 93.88 9.08 93.88 9.08 96.43 3.03 96.43 3.03 103.45 0 103.45 0 87.03"/><rect class="cls-2" x="12.43" y="87.03" width="3.03" height="16.41"/><path class="cls-2" d="M21.84,93.38V77h3.34l4.31,7a36.6,36.6,0,0,1,2.86,5.57h0c-.16-2.23-.31-4.3-.31-6.85V77h2.7V93.38h-3l-4.31-7.17a39.93,39.93,0,0,1-2.87-5.74h0c.16,2.07.16,4.3.16,7v5.9Z" transform="translate(-3.03 10.07)"/><path class="cls-2" d="M52.27,86.69c-.15-2.08-.15-4.63-.15-6.86h0c-.48,2.07-1.28,4.15-1.92,6.22l-2.39,7.17H45.42l-2.23-7a46.47,46.47,0,0,1-1.59-6.38h0c0,2.07-.16,4.78-.32,7L41,93.38H38.09L39.21,77h4l2.07,6.54a37.37,37.37,0,0,1,1.44,5.74h0c.47-1.76.95-3.83,1.59-5.74L50.52,77h3.83l.95,16.42H52.43Z" transform="translate(-3.03 10.07)"/><path class="cls-2" d="M66.46,86.37l-1.28-4a20.8,20.8,0,0,1-.79-3h0c-.32,1-.48,2.08-.8,3l-1.28,4ZM61.68,88.6l-1.44,4.62h-3L62.47,76.8H66.3l5.26,16.42H68.37L66.94,88.6Z" transform="translate(-3.03 10.07)"/><path class="cls-2" d="M77,84.29h1.75c2.07,0,3.35-1.11,3.35-2.7,0-1.76-1.28-2.71-3.19-2.71A5.45,5.45,0,0,0,77,79v5.25Zm-3-7.17a34.19,34.19,0,0,1,4.46-.32c2.39,0,4,.32,5.1,1.28a4.11,4.11,0,0,1,1.43,3.35,4.51,4.51,0,0,1-3,4.14h0a4.13,4.13,0,0,1,2.23,3.19,32.41,32.41,0,0,0,1.27,4.62h-3a16.44,16.44,0,0,1-1.12-3.83c-.48-2.07-1.28-2.86-2.87-2.86H77v6.69H74V77.12Z" transform="translate(-3.03 10.07)"/><path class="cls-2" d="M87.81,77h3v7.49h0A17.77,17.77,0,0,1,92,82.7L96.26,77h3.67l-5.58,7,6.05,9.4H96.9l-4.62-7.49-1.44,1.75v5.74h-3V77Z" transform="translate(-3.03 10.07)"/><polygon class="cls-2" points="107.25 90.06 102.95 90.06 102.95 87.03 115.54 87.03 115.54 90.06 111.08 90.06 111.08 103.45 107.25 103.45 107.25 90.06"/><path class="cls-2" d="M124.15,84.14h1.43c1.92,0,2.87-1,2.87-2.4s-.95-2.23-2.71-2.23a4.47,4.47,0,0,0-1.75.16v4.47Zm-3.67-7a36.25,36.25,0,0,1,4.94-.32c2.39,0,4.15.32,5.26,1.28a4.33,4.33,0,0,1,1.6,3.51,4.22,4.22,0,0,1-2.87,4h0a4.56,4.56,0,0,1,2.23,3,42.59,42.59,0,0,0,1.27,4.62h-3.82A16.44,16.44,0,0,1,128,89.39c-.47-2.07-1.11-2.55-2.71-2.7h-1.11v6.53h-3.67V77.12Z" transform="translate(-3.03 10.07)"/><path class="cls-2" d="M138.65,77v9.41c0,2.87,1.12,4.3,3,4.3s3-1.43,3-4.3V77h3.66v9.25c0,5.1-2.55,7.49-6.85,7.49-4.14,0-6.53-2.39-6.53-7.49V77.12h3.66V77Z" transform="translate(-3.03 10.07)"/><path class="cls-2" d="M151.72,89.55a9.91,9.91,0,0,0,4.14,1c1.76,0,2.55-.64,2.55-1.75s-.79-1.6-2.71-2.23c-2.71-1-4.46-2.55-4.46-4.94,0-2.87,2.39-4.94,6.22-4.94a9,9,0,0,1,4.14.79l-.8,3a7.2,7.2,0,0,0-3.34-.8c-1.6,0-2.39.8-2.39,1.6,0,1.11,1,1.43,3,2.39,2.87,1.11,4.31,2.55,4.31,4.94,0,2.71-2.07,5.1-6.54,5.1a11.12,11.12,0,0,1-4.62-1Z" transform="translate(-3.03 10.07)"/><polygon class="cls-2" points="164.94 90.06 160.48 90.06 160.48 87.03 173.07 87.03 173.07 90.06 168.61 90.06 168.61 103.45 164.94 103.45 164.94 90.06"/><polygon class="cls-2" points="117.29 12.93 117.29 26.47 129.88 26.47 129.88 81.93 145.18 81.93 145.18 26.47 157.93 26.47 157.93 12.93 117.29 12.93"/><path class="cls-2" d="M108.05,64.06V21l-7,42.23a90.33,90.33,0,0,0-17.37-.16l-7-41.91V63.9a127.51,127.51,0,0,0-14.82,3L63.75,3H86.06L92.28,48,98.49,3H120.8l1.92,65a87.45,87.45,0,0,0-14.67-4" transform="translate(-3.03 10.07)"/><polygon class="cls-2" points="15.3 12.93 15.3 26.47 27.89 26.47 27.89 81.93 43.19 81.93 43.19 55.32 56.58 55.32 56.58 42.57 43.19 42.57 43.19 26.47 60.88 26.47 60.88 12.93 15.3 12.93"/></svg>